===================== THE GAME FT. LIL WAYNE - RED NATION HD ===================== 

Format                           : MPEG-4
Format profile                   : Base Media / Version 2
Codec ID                         : mp42
File size                        : 83.5 MiB
Duration                         : 4mn 2s
Overall bit rate                 : 2 889 Kbps
Encoded date                     : UTC 2011-05-10 00:29:23
Tagged date                      : UTC 2011-05-10 00:29:23
gsst                             : 0
gstd                             : 242358
gssd                             : BADC20642HH1305221922369397
gshh                             :

Video
ID                               : 1
Format                           : AVC
Format/Info                      : Advanced Video Codec
Format profile                   : High@L4.0
Format settings, CABAC           : Yes
Format settings, ReFrames        : 1 frame
Codec ID                         : avc1
Codec ID/Info                    : Advanced Video Coding
Duration                         : 4mn 2s
Bit rate mode                    : Variable
Bit rate                         : 2 734 Kbps
Maximum bit rate                 : 5 498 Kbps
Width                            : 1 920 pixels
Height                           : 1 080 pixels
Display aspect ratio             : 16:9
Frame rate mode                  : Variable
Frame rate                       : 23.976 fps
Minimum frame rate               : 17.241 fps
Maximum frame rate               : 24.390 fps
Color space                      : YUV
Chroma subsampling               : 4:2:0
Bit depth                        : 8 bits
Scan type                        : Progressive
Bits/(Pixel*Frame)               : 0.055
Stream size                      : 79.0 MiB (95%)
Tagged date                      : UTC 2011-05-10 00:29:24

Audio
ID                               : 2
Format                           : AAC
Format/Info                      : Advanced Audio Codec
Format version                   : Version 4
Format profile                   : LC
Format settings, SBR             : No
Codec ID                         : 40
Duration                         : 4mn 2s
Bit rate mode                    : Variable
Bit rate                         : 149 Kbps
Maximum bit rate                 : 168 Kbps
Channel(s)                       : 2 channels
Channel positions                : Front: L R
Sampling rate                    : 44.1 KHz
Stream size                      : 4.31 MiB (5%)
Title                            : (C) 2007 Google Inc. v08.13.2007.
Encoded date                     : UTC 2011-05-10 00:29:24
Tagged date                      : UTC 2011-05-10 00:29:24

====================((((((((((SCREEN SHOT)))))))))=================================
                       
                      http://bayimg.com/PaiDNAAdD

======================(((((((LEAVE COMMENTS)))))))================================